<svg xmlns="http://www.w3.org/2000/svg" viewBox="0 0 64 64">
<rect width="64" height="64" rx="14" fill="#fffaf0"/>
<g transform="translate(32 41)"><g><polygon points="0,-3 -25.98,-18 -25.98,0 0,15" fill="#2b5c97" stroke="rgba(31, 62, 84, 0.2)" stroke-width="0.6" stroke-linejoin="round"/><polygon points="25.98,-18 0,-3 0,15 25.98,0" fill="#3773bd" stroke="rgba(31, 62, 84, 0.2)" stroke-width="0.6" stroke-linejoin="round"/><polygon points="0,-33 25.98,-18 0,-3 -25.98,-18" fill="#659cdf" stroke="rgba(31, 62, 84, 0.2)" stroke-width="0.6" stroke-linejoin="round"/><ellipse cx="0" cy="-26.7" rx="5.51" ry="4.38" fill="#4285d8"/><ellipse cx="0" cy="-27.9" rx="5.51" ry="3.18" fill="#7cabe4"/><ellipse cx="-12.99" cy="-19.2" rx="5.51" ry="4.38" fill="#4285d8"/><ellipse cx="-12.99" cy="-20.4" rx="5.51" ry="3.18" fill="#7cabe4"/><ellipse cx="12.99" cy="-19.2" rx="5.51" ry="4.38" fill="#4285d8"/><ellipse cx="12.99" cy="-20.4" rx="5.51" ry="3.18" fill="#7cabe4"/><ellipse cx="0" cy="-11.7" rx="5.51" ry="4.38" fill="#4285d8"/><ellipse cx="0" cy="-12.9" rx="5.51" ry="3.18" fill="#7cabe4"/></g></g>
</svg>
